<svg width="1056" height="23" viewBox="0 0 1056 23" fill="none" xmlns="http://www.w3.org/2000/svg">
<path d="M13 1.87972L11.0666 0L0.535658 10.2445C0.365905 10.4086 0.231187 10.6038 0.139257 10.8189C0.0473268 11.0339 0 11.2645 0 11.4973C0 11.7302 0.0473268 11.9608 0.139257 12.1758C0.231187 12.3908 0.365905 12.586 0.535658 12.7502L11.0666 23L12.9982 21.1203L3.11417 11.5L13 1.87972Z" fill="white"/>
<path d="M1043 1.87972L1044.93 0L1055.46 10.2445C1055.63 10.4086 1055.77 10.6038 1055.86 10.8189C1055.95 11.0339 1056 11.2645 1056 11.4973C1056 11.7302 1055.95 11.9608 1055.86 12.1758C1055.77 12.3908 1055.63 12.586 1055.46 12.7502L1044.93 23L1043 21.1203L1052.89 11.5L1043 1.87972Z" fill="white"/>
</svg>
