<svg width="1444" height="220" viewBox="0 0 1444 220" fill="none" xmlns="http://www.w3.org/2000/svg">
<path d="M0 12.8733C16.0433 5.62583 32.084 -1.62163 48.1273 0.319278C64.1681 2.2615 80.2114 13.3934 96.2521 12.8733C112.295 12.3519 128.336 0.179701 144.379 0.319278C160.423 0.458854 176.463 12.9102 192.507 12.8733C208.548 12.8351 224.591 0.31006 240.632 0.319278C256.675 0.329812 272.716 12.8759 288.759 12.8733C304.802 12.8707 320.843 0.319278 336.886 0.319278C352.927 0.320594 368.97 12.8733 385.011 12.8733C401.054 12.8733 417.095 0.319278 433.138 0.319278C449.182 0.319278 465.222 12.8733 481.266 12.8733C497.306 12.8733 513.35 0.319278 529.39 0.319278C545.434 0.319278 561.474 12.8733 577.518 12.8733C593.561 12.8733 609.602 0.319278 625.645 0.319278C641.686 0.319278 657.729 12.8733 673.77 12.8733C689.813 12.8733 705.854 0.319278 721.897 0.319278C737.94 0.319278 753.981 12.8733 770.024 12.8733C786.065 12.8733 802.109 0.319278 818.149 0.319278C834.193 0.319278 850.233 12.8733 866.277 12.8733C882.32 12.8733 898.361 0.319278 914.404 0.319278C930.445 0.319278 946.488 12.8733 962.529 12.8733C978.572 12.8733 994.613 0.319278 1010.66 0.319278C1026.7 0.319278 1042.74 12.8733 1058.78 12.8733C1074.82 12.8733 1090.87 0.320594 1106.91 0.319278C1122.95 0.319278 1138.99 12.8707 1155.04 12.8733C1171.08 12.8759 1187.12 0.329812 1203.16 0.319278C1219.2 0.31006 1235.25 12.8351 1251.29 12.8733C1267.33 12.9102 1283.37 0.458854 1299.41 0.319278C1315.46 0.179701 1331.5 12.3519 1347.54 12.8733C1363.58 13.3934 1379.63 2.2615 1395.67 0.319278C1411.71 -1.62163 1427.75 5.62583 1443.79 12.8733V220C1427.75 220 1411.71 220 1395.67 220C1379.63 220 1363.58 220 1347.54 220C1331.5 220 1315.46 220 1299.41 220C1283.37 220 1267.33 220 1251.29 220C1235.25 220 1219.2 220 1203.16 220C1187.12 220 1171.08 220 1155.04 220C1138.99 220 1122.95 220 1106.91 220C1090.87 220 1074.82 220 1058.78 220C1042.74 220 1026.7 220 1010.66 220C994.613 220 978.572 220 962.529 220C946.488 220 930.445 220 914.404 220C898.361 220 882.32 220 866.277 220C850.233 220 834.193 220 818.149 220C802.109 220 786.065 220 770.024 220C753.981 220 737.94 220 721.897 220C705.854 220 689.813 220 673.77 220C657.729 220 641.686 220 625.645 220C609.602 220 593.561 220 577.518 220C561.474 220 545.434 220 529.39 220C513.35 220 497.306 220 481.266 220C465.222 220 449.182 220 433.138 220C417.095 220 401.054 220 385.011 220C368.97 220 352.927 220 336.886 220C320.843 220 304.802 220 288.759 220C272.716 220 256.675 220 240.632 220C224.591 220 208.548 220 192.507 220C176.463 220 160.423 220 144.379 220C128.336 220 112.295 220 96.2521 220C80.2114 220 64.1681 220 48.1273 220C32.084 220 16.0433 220 0 220V12.8733Z" fill="#270D83"/>
</svg>
